<svg xmlns="http://www.w3.org/2000/svg" viewBox="0 0 512 512">
  <defs>
    <radialGradient id="bg" cx="50%" cy="50%">
      <stop offset="0%" stop-color="#1a1a2e"/>
      <stop offset="100%" stop-color="#0a0a12"/>
    </radialGradient>
    <linearGradient id="stemG" x1="0" y1="1" x2="0" y2="0">
      <stop offset="0%" stop-color="#3d6b35"/>
      <stop offset="100%" stop-color="#6aaa55"/>
    </linearGradient>
    <linearGradient id="bell" x1="0" y1="1" x2="0" y2="0">
      <stop offset="0%" stop-color="#d4e8d0"/>
      <stop offset="100%" stop-color="#ffffff"/>
    </linearGradient>
    <linearGradient id="leaf" x1="0" y1="0" x2="1" y2="1">
      <stop offset="0%" stop-color="#3d6b35"/>
      <stop offset="100%" stop-color="#5a9a48"/>
    </linearGradient>
    <filter id="glow">
      <feGaussianBlur stdDeviation="6"/>
      <feMerge><feMergeNode/><feMergeNode in="SourceGraphic"/></feMerge>
    </filter>
  </defs>
  <rect width="512" height="512" rx="100" fill="url(#bg)"/>
  <rect width="512" height="512" rx="100" fill="none" stroke="#c9a96e" stroke-width="8" opacity="0.5"/>
  <ellipse cx="155" cy="400" rx="90" ry="28" fill="url(#leaf)" transform="rotate(-25 155 400)" opacity="0.9"/>
  <ellipse cx="355" cy="410" rx="80" ry="24" fill="url(#leaf)" transform="rotate(20 355 410)" opacity="0.85"/>
  <line x1="100" y1="392" x2="210" y2="408" stroke="#2d5a28" stroke-width="2" opacity="0.4"/>
  <line x1="300" y1="402" x2="410" y2="418" stroke="#2d5a28" stroke-width="2" opacity="0.4"/>
  <path d="M256 430 Q252 360 245 300 Q238 240 248 180 Q255 140 260 110" stroke="url(#stemG)" stroke-width="8" fill="none" stroke-linecap="round"/>
  <line x1="247" y1="220" x2="215" y2="195" stroke="url(#stemG)" stroke-width="4" stroke-linecap="round"/>
  <line x1="250" y1="260" x2="290" y2="240" stroke="url(#stemG)" stroke-width="4" stroke-linecap="round"/>
  <line x1="249" y1="180" x2="280" y2="158" stroke="url(#stemG)" stroke-width="4" stroke-linecap="round"/>
  <line x1="246" y1="300" x2="212" y2="282" stroke="url(#stemG)" stroke-width="4" stroke-linecap="round"/>
  <line x1="251" y1="140" x2="228" y2="120" stroke="url(#stemG)" stroke-width="3" stroke-linecap="round"/>
  <g filter="url(#glow)">
    <path d="M260 110 Q256 90 252 78 Q248 64 260 58 Q272 52 274 58 Q276 64 270 78 Q265 92 260 110Z" fill="url(#bell)"/>
    <line x1="254" y1="58" x2="268" y2="58" stroke="#c9a96e" stroke-width="2" stroke-linecap="round"/>
  </g>
  <path d="M210 193 Q206 175 203 164 Q200 152 210 146 Q220 140 222 146 Q224 152 220 164 Q216 177 210 193Z" fill="url(#bell)"/>
  <circle cx="211" cy="151" r="3" fill="#c9a96e"/>
  <path d="M275 156 Q271 140 268 129 Q265 118 275 112 Q285 106 287 112 Q289 118 285 129 Q281 142 275 156Z" fill="url(#bell)"/>
  <circle cx="276" cy="118" r="3" fill="#c9a96e"/>
  <path d="M285 238 Q281 222 278 211 Q275 200 285 194 Q295 188 297 194 Q299 200 295 211 Q291 224 285 238Z" fill="url(#bell)"/>
  <circle cx="286" cy="200" r="3" fill="#c9a96e"/>
  <path d="M207 280 Q203 264 200 253 Q197 242 207 236 Q217 230 219 236 Q221 242 217 253 Q213 266 207 280Z" fill="url(#bell)"/>
  <circle cx="208" cy="242" r="3" fill="#c9a96e"/>
  <path d="M248 195 Q244 180 241 169 Q238 158 248 152 Q258 146 260 152 Q262 158 258 169 Q254 182 248 195Z" fill="url(#bell)"/>
  <circle cx="249" cy="158" r="3" fill="#c9a96e"/>
  <circle cx="310" cy="120" r="4" fill="#c9a96e" opacity="0.5"/>
  <circle cx="330" cy="145" r="3" fill="#c9a96e" opacity="0.3"/>
  <circle cx="180" cy="160" r="3" fill="#c9a96e" opacity="0.4"/>
  <circle cx="170" cy="230" r="2" fill="#c9a96e" opacity="0.35"/>
  <circle cx="310" cy="270" r="2" fill="#c9a96e" opacity="0.3"/>
</svg>